<?xml version="1.0" standalone="no"?>
<!DOCTYPE svg PUBLIC "-//W3C//DTD SVG 20010904//EN"
 "http://www.w3.org/TR/2001/REC-SVG-20010904/DTD/svg10.dtd">
<svg version="1.0" xmlns="http://www.w3.org/2000/svg"
 width="500.000000pt" height="500.000000pt" viewBox="0 0 500.000000 500.000000"
 preserveAspectRatio="xMidYMid meet">
<metadata>
Created by potrace 1.14, written by Peter Selinger 2001-2017
</metadata>
<g transform="translate(0.000000,500.000000) scale(0.100000,-0.100000)"
fill="#000000" stroke="none">
<path d="M459 4368 c-35 -17 -61 -20 -132 -19 -87 2 -88 2 -117 -29 -17 -18
-30 -40 -31 -49 0 -9 -2 -23 -4 -32 -1 -10 -6 -52 -9 -95 -4 -44 -9 -97 -11
-119 -6 -50 -16 -166 -21 -225 -1 -25 -5 -65 -8 -90 -6 -45 -9 -84 -22 -235
-4 -44 -8 -93 -11 -110 -10 -75 -11 -285 -2 -330 11 -54 45 -125 93 -195 38
-55 40 -57 96 -99 61 -47 68 -57 65 -94 -2 -18 -6 -68 -11 -112 -4 -44 -8 -93
-9 -110 -3 -53 -16 -199 -20 -235 -5 -36 -13 -146 -20 -255 -2 -33 -8 -109
-14 -170 -11 -116 -18 -198 -26 -305 -2 -36 -6 -90 -9 -120 -26 -275 -27 -317
-6 -396 32 -120 105 -211 213 -264 197 -97 411 -39 539 147 52 76 66 136 63
259 -2 60 -6 129 -9 154 -6 45 -13 122 -21 235 -3 33 -7 80 -10 105 -2 25 -7
90 -11 144 -3 55 -7 107 -9 115 -2 9 -6 54 -9 101 -4 47 -9 105 -11 130 -3 25
-7 72 -10 105 -17 228 -24 313 -40 472 -3 36 -1 44 23 59 114 74 218 229 237
355 8 49 8 200 0 239 -7 33 -14 107 -20 205 -3 44 -8 99 -10 122 -3 24 -8 71
-10 105 -3 35 -7 83 -9 108 -3 25 -8 77 -11 115 -3 39 -8 84 -10 100 -2 17 -7
66 -10 110 -6 79 -31 151 -61 176 -12 10 -150 16 -180 7 -5 -1 -23 6 -41 15
-40 21 -107 20 -153 -4 -27 -13 -40 -15 -55 -7 -10 6 -37 17 -60 24 -37 11
-47 10 -86 -8z m310 -115 c21 -18 21 -21 24 -548 l2 -529 24 -12 c20 -10 73
-5 87 8 1 2 4 241 5 531 2 396 5 530 14 537 17 14 45 2 46 -21 1 -10 2 -22 3
-26 2 -5 6 -53 10 -108 4 -55 10 -113 12 -130 3 -16 7 -57 9 -90 3 -33 9 -107
14 -165 6 -58 13 -132 16 -165 3 -33 7 -73 9 -90 6 -47 20 -246 20 -285 -1
-67 -14 -126 -44 -185 -38 -77 -76 -119 -158 -176 -76 -52 -70 -32 -58 -214 4
-55 8 -107 11 -115 3 -13 8 -67 20 -235 4 -50 14 -175 20 -235 2 -25 7 -79 10
-120 4 -41 8 -95 10 -120 8 -83 15 -165 20 -230 7 -102 15 -201 21 -250 25
-237 18 -315 -36 -393 -60 -84 -175 -142 -270 -135 -72 5 -161 49 -206 102
-61 71 -89 190 -70 296 3 14 7 63 11 110 3 47 8 105 10 130 6 66 14 166 20
245 3 39 8 93 10 120 5 54 11 126 20 245 3 41 7 93 10 115 2 22 7 76 10 120 4
44 8 100 10 125 2 25 6 81 10 125 3 44 8 105 11 135 15 151 18 137 -32 161
-136 68 -240 252 -229 404 10 130 24 287 31 347 3 26 7 69 9 95 3 26 7 73 9
103 3 30 8 87 11 125 4 39 8 85 11 104 2 19 6 71 10 115 8 119 17 157 37 170
26 16 36 -6 35 -78 -3 -285 5 -985 11 -995 5 -8 26 -11 57 -9 l49 3 0 531 c0
575 -1 564 54 564 52 0 52 0 52 -563 0 -390 3 -524 12 -529 18 -11 95 -10 102
2 3 6 6 248 6 539 l-1 530 22 15 c28 20 31 20 57 -1z"/>
<path d="M3208 4375 c-2 -2 -21 -5 -43 -8 -121 -17 -274 -87 -389 -177 -122
-96 -246 -291 -282 -445 -21 -93 -21 -89 -29 -173 -8 -83 -10 -85 -106 -97
-229 -29 -468 -134 -679 -300 -92 -72 -254 -262 -319 -375 -68 -117 -147 -321
-165 -425 -20 -113 -27 -213 -23 -328 5 -141 10 -181 33 -267 8 -30 16 -64 18
-75 28 -153 207 -458 357 -607 116 -115 290 -225 509 -321 43 -19 177 -53 245
-63 28 -3 59 -8 70 -11 28 -5 291 -4 340 2 137 17 324 74 452 139 221 111 444
316 563 516 72 120 147 294 165 380 1 3 6 30 13 60 34 161 34 404 1 580 -31
162 -136 399 -239 535 -87 116 -232 258 -333 326 -109 75 -279 160 -377 190
-76 23 -83 25 -110 28 -8 1 23 22 70 47 232 125 386 328 474 629 47 164 56
223 35 236 -12 7 -244 10 -251 4z m122 -125 c0 -35 -72 -233 -112 -311 -100
-191 -243 -312 -459 -388 -46 -16 -108 -33 -137 -37 l-52 -7 5 34 c3 19 7 50
9 69 29 234 176 454 376 562 65 35 147 65 210 77 133 26 160 26 160 1z m-565
-889 c408 -63 765 -326 956 -706 31 -62 70 -163 84 -221 49 -197 59 -391 30
-550 -50 -266 -165 -493 -344 -677 -182 -188 -379 -300 -641 -364 -91 -23
-127 -26 -270 -27 -276 0 -464 51 -685 187 -313 192 -546 546 -596 902 -13 95
-15 255 -5 345 10 84 61 268 95 345 15 33 34 75 42 93 7 17 17 32 21 32 5 0 8
5 8 10 0 44 213 290 332 383 57 46 183 121 257 154 211 94 486 130 716 94z"/>
<path d="M4554 4363 c-94 -41 -146 -112 -264 -363 -235 -496 -267 -911 -100
-1274 27 -59 31 -77 26 -120 -9 -78 -15 -152 -21 -256 -3 -52 -8 -111 -10
-130 -6 -42 -12 -107 -20 -215 -3 -44 -7 -105 -10 -135 -2 -30 -7 -89 -10
-130 -4 -41 -8 -86 -10 -100 -2 -14 -6 -65 -9 -115 -3 -49 -8 -110 -11 -135
-27 -255 -31 -392 -16 -462 21 -91 95 -191 184 -249 75 -48 118 -60 222 -62
81 -1 110 6 195 47 78 37 171 145 201 231 15 45 18 204 6 330 -4 44 -9 109
-12 145 -3 36 -8 92 -10 125 -3 33 -8 87 -10 120 -3 33 -7 76 -10 95 -2 19 -7
73 -10 120 -6 90 -13 186 -20 260 -3 25 -7 83 -10 130 -3 47 -7 96 -10 110
-24 133 -24 436 0 580 2 14 7 57 10 95 4 39 8 80 10 92 2 12 6 57 10 100 3 43
8 92 10 108 2 17 7 64 11 105 6 83 8 107 17 195 19 188 31 364 31 485 1 115 1
115 -33 166 -50 76 -121 116 -214 121 -53 2 -83 -2 -113 -14z m146 -108 c68
-24 113 -97 105 -173 -2 -20 -6 -71 -10 -112 -3 -41 -8 -91 -11 -110 -3 -19
-7 -60 -9 -90 -2 -30 -9 -104 -15 -165 -5 -60 -12 -137 -15 -170 -3 -33 -7
-76 -9 -95 -2 -19 -7 -66 -10 -105 -4 -38 -9 -95 -12 -125 -2 -30 -7 -80 -10
-110 -4 -30 -7 -68 -9 -85 -1 -16 -6 -68 -10 -115 -11 -119 -12 -195 -4 -265
4 -33 10 -102 13 -152 3 -51 8 -108 11 -125 2 -18 7 -73 10 -123 4 -49 8 -103
9 -120 2 -16 6 -68 10 -115 4 -47 9 -101 11 -120 3 -19 7 -74 10 -123 3 -48 7
-106 10 -130 2 -23 7 -71 10 -107 3 -36 7 -85 10 -110 27 -263 26 -321 -9
-398 -109 -238 -424 -242 -543 -7 -28 55 -36 152 -21 270 4 33 10 103 14 155
3 52 7 106 9 120 1 14 5 61 9 105 4 44 9 107 12 140 3 33 7 78 9 100 8 103 16
194 20 235 5 53 13 155 21 260 3 41 7 93 9 115 2 22 6 76 10 120 3 44 8 97 10
119 3 24 -2 51 -14 75 -22 42 -83 233 -99 306 -10 44 -25 162 -25 190 3 207
105 548 255 850 64 127 91 163 142 186 50 23 53 23 106 4z"/>
</g>
</svg>
